<svg xmlns="http://www.w3.org/2000/svg" xmlns:xlink="http://www.w3.org/1999/xlink" version="1.0" width="175" height="199"><defs><linearGradient id="a"><stop offset="0" stop-color="#ffcb05"/><stop offset=".461" stop-color="#d5a903"/><stop offset=".658" stop-color="#a18000"/><stop offset="1" stop-color="#ffcb05"/></linearGradient><linearGradient id="b"><stop offset="0"/><stop offset="1" stop-color="#ef9232"/></linearGradient><linearGradient id="c"><stop offset="0"/><stop offset="1" stop-opacity=".345"/></linearGradient><linearGradient id="e"><stop offset="0" stop-color="#ffcb05"/><stop offset=".461" stop-color="#d5a903"/><stop offset=".658"/><stop offset="1" stop-color="#ffcb05"/></linearGradient><linearGradient id="d"><stop offset="0"/><stop offset="1" stop-opacity=".424"/></linearGradient><linearGradient x1="82.46" y1="187.449" x2="95.176" y2="187.449" id="k" xlink:href="#a" gradientUnits="userSpaceOnUse"/><linearGradient x1="83.998" y1="172.53" x2="94.224" y2="172.53" id="j" xlink:href="#a" gradientUnits="userSpaceOnUse"/><linearGradient x1="94.908" y1="166.563" x2="79.946" y2="169.052" id="h" xlink:href="#b" gradientUnits="userSpaceOnUse" gradientTransform="translate(-.146 .732)"/><linearGradient x1="94.908" y1="166.563" x2="82.874" y2="170.224" id="i" xlink:href="#c" gradientUnits="userSpaceOnUse" gradientTransform="translate(-.146 .732)"/><linearGradient x1="91.953" y1="29.228" x2="89.261" y2="26.639" id="g" xlink:href="#d" gradientUnits="userSpaceOnUse" gradientTransform="translate(.155 .17)"/><linearGradient x1="83.925" y1="38.425" x2="93.638" y2="38.425" id="f" xlink:href="#e" gradientUnits="userSpaceOnUse" gradientTransform="translate(.155 .17)"/></defs><path fill="url(#f)" stroke="#000" stroke-linecap="square" stroke-linejoin="bevel" d="M84.58 29.443h8.713v18.305H84.58z"/><path d="M108.884 8.844s8.103 7.74 8.077 16.05c-.026 8.31-8.077 16.154-8.077 16.154s1.14-6.472-3.831-9.94c-4.97-3.47-16.05-3.936-16.05-3.936-5.18-.18-13.462 3.21-13.462 3.21l-10.252-5.384 10.252-5.385s7.973 3.632 13.461 3.728c0 0 11.158-1.14 16.05-4.764 4.893-3.624 3.832-9.733 3.832-9.733z" fill="#ffcd05" fill-rule="evenodd" stroke="#000"/><path d="M71.913 25.342h8.347l-4.32 2.563-4.027-2.563z" fill-rule="evenodd"/><rect width="11.08" height="10.459" rx="1.657" ry="1.657" x="82.996" y="20.234" fill="#ffcd05" stroke="#000" stroke-linejoin="bevel"/><rect width="8.077" height="2.899" rx="1.436" ry="1.657" x="21.425" y="-84.187" transform="rotate(90)" fill="#ffcd05" stroke="#000" stroke-linejoin="bevel"/><path d="M86.828 18.267l-3.728-6.42L88.692 1.49l5.074 10.356-3.107 6.42h-3.831z" fill="#ffcd05" fill-rule="evenodd" stroke="#000"/><rect width="8.388" height="3.314" rx="1.657" ry="1.657" x="84.342" y="17.024" fill="#ffcd05" stroke="#000" stroke-linejoin="bevel"/><path d="M87.397 29.399h4.712V24.22c-1.036 2.692-2.848 4.504-4.712 5.178z" fill="url(#g)" fill-rule="evenodd"/><path d="M88.563 35.58c-6.99-.165-11.345 1.448-16.25 4.826v128.375h32.468V40.406c-4.447-3.716-9.23-4.661-16.219-4.826z" fill="#ffcb05" stroke="#000" stroke-width=".5" stroke-linejoin="bevel"/><path d="M75.549 38.5v126.52m3.959-128.301v127.113m4.044-127.968v127.113M89.37 35.633v127.114M98.171 36.85v127.114M101.57 38.27v127.112m-8-129.422v127.113" fill="none" stroke="#000" stroke-width=".6"/><path d="M104.542 161.218c-1.471-2.733-3.95-5.426-6.708-7.648-2.782-2.243-7.682-5.968-11.025-8.295-3.262-2.27-10.536-6.66-14.338-5.325v-7.395c5.277-.814 16.547 7.725 18.196 8.653 5.837 4.267 9.284 7.67 13.894 13.237l-.019 6.773z" fill="#ef9232" fill-rule="evenodd" stroke="#000" stroke-width=".7"/><path d="M72.49 161.218c1.471-2.733 3.95-5.426 6.708-7.648 2.782-2.243 7.682-5.968 11.025-8.295 3.262-2.27 10.536-6.66 14.338-5.325v-7.395c-5.277-.814-16.547 7.725-18.196 8.653-5.837 4.267-9.284 7.67-13.894 13.237l.019 6.773z" fill="#ef9232" fill-rule="evenodd" stroke="#000" stroke-width=".7"/><path d="M72.49 161.218c2.196-1.904 5.272-3.076 8.054-3.662 2.782-.585 6.077-1.171 9.006-1.098 2.93.073 4.613.293 7.103 1.172 2.49.878 5.198 1.684 6.516 2.636 1.318.952 1.392 1.171 1.392 1.171v-7.395s-1.611-.732-2.93-1.172c-1.317-.439-3.77-1.464-5.6-1.72-1.814-.254-4.21-.77-8.165-.623-3.954.147-8.933 1.099-11.276 1.977-2.343.879-4.119 1.94-4.119 1.94l.019 6.774z" fill="#ef9232" fill-rule="evenodd" stroke="#000" stroke-width=".7"/><path d="M104.535 159.443l.047-1.346s-2.222-1.812-5.432-2.847c-3.21-1.036-4.763-.984-4.763-.984s1.243.259 2.485.673c1.243.414 3.987 1.967 4.505 2.278.517.31 3.261 2.278 3.158 2.226zm-28.27-6.937c1.191-1.554 5.851-5.282 5.851-5.282s-1.967 2.02-2.589 2.848a30.893 30.893 0 00-1.294 1.916l-1.968.518zm-3.882-18.029c2.44.265 5.538 2.61 6.315 4.112 0 0-2.578-1.763-3.57-2.057a123.26 123.26 0 01-2.558-.805l-.187-1.25zm17.604 11.96c1.094.161 1.733.101 2.885.94 1.127.822 1.421.943 1.982 2.254-.94-.963-2.027-1.69-2.415-1.996-.38-.3-2.452-1.198-2.452-1.198zm2.612-.512c1.063.303 2.325.482 3.358 1.466 1.01.962 1.079 1.69 1.462 3.063-.805-1.078-1.58-2.51-1.925-2.865-.338-.347-2.895-1.664-2.895-1.664z" fill-rule="evenodd"/><path d="M104.485 78.405c-1.472-2.732-3.951-5.426-6.709-7.648-2.782-2.243-7.681-5.968-11.025-8.295-3.262-2.27-10.536-6.659-14.338-5.324v-7.396c5.277-.814 16.547 7.725 18.196 8.653 5.837 4.268 9.284 7.671 13.894 13.237l-.018 6.773z" fill="#ef9232" fill-rule="evenodd" stroke="#000" stroke-width=".7"/><path d="M72.432 78.583c1.472-2.733 3.95-5.426 6.708-7.648 2.782-2.243 7.682-5.968 11.026-8.295 3.261-2.27 10.535-6.66 14.337-5.325V49.92c-5.277-.814-16.547 7.725-18.196 8.653-5.836 4.267-9.284 7.67-13.894 13.237l.019 6.773z" fill="#ef9232" fill-rule="evenodd" stroke="#000" stroke-width=".7"/><path d="M72.432 53.839c2.196-1.904 5.272-3.588 8.054-4.174 2.782-.585 6.077-1.171 9.006-1.098 2.93.073 4.613.293 7.103 1.172 2.49.878 5.198 1.684 6.516 2.636 1.318.951 1.392 1.171 1.392 1.171v-7.395s-1.611-.732-2.93-1.172c-1.317-.44-3.77-1.464-5.6-1.72-1.814-.254-4.21-.77-8.165-.623-3.954.147-8.933 1.098-11.276 1.977s-4.119 1.94-4.119 1.94l.019 7.286z" fill="#ef9232" fill-rule="evenodd" stroke="#000" stroke-width=".7"/><path d="M104.477 51.552l.047-1.346s-2.222-1.812-5.432-2.847c-3.21-1.036-4.763-.984-4.763-.984s1.243.259 2.485.673c1.243.414 3.987 1.967 4.505 2.278.517.31 3.261 2.278 3.158 2.226zm-30.141 1.006c1.574 0 5.198 1.354 5.198 1.354-.549-.878-2.306-1.757-4.32-2.16l-.878.806zm-1.868 2.599c1.575 0 5.2 1.355 5.2 1.355-.55-.88-3.076-1.868-5.09-2.27l-.11.915zm3.665-5.84s3.02-1.278 6.528-2.055c3.508-.777 7.504-1.052 7.504-1.052s-4.259-.621-7.767.156c-3.508.776-6.265 2.95-6.265 2.95z" fill-rule="evenodd"/><path d="M88.563 162.781c-8.96 0-16.25 2.582-16.25 5.75s7.29 5.75 16.25 5.75 16.218-2.582 16.218-5.75-7.259-5.75-16.219-5.75z" fill="#ef9232" stroke="#000" stroke-width=".5" stroke-linejoin="bevel"/><path d="M99.215 168.686a10.178 2.49 0 01-20.355 0 10.178 2.49 0 1120.355 0z" fill="url(#h)" stroke="url(#i)" stroke-linecap="square" stroke-linejoin="bevel"/><path d="M84.498 167.002s2.306-.732 4.613-.732c2.306 0 4.613.732 4.613.732v11.789h-9.226v-11.789z" fill="url(#j)" stroke="#000" stroke-linecap="square" stroke-linejoin="bevel"/><path d="M82.96 177.766c.879-1.318 2.93-1.648 5.858-1.648 2.929 0 4.54.403 5.858 1.648v17.28c0 1.508-2.93 3.734-5.858 3.734-2.929 0-5.858-2.233-5.858-3.734v-17.28z" fill="url(#k)" stroke="#000" stroke-linecap="square" stroke-linejoin="bevel"/><path d="M82.887 184.649c3.149-4.174 11.496-5.2 11.496-5.2m-5.785 1.392c3.735.513 5.126 1.904 6.078 3.075" fill="none" stroke="#000"/><path d="M40.358 90.864s.586 2.05 4.394 4.54c3.807 2.49 8.64 4.98 11.276 5.419 2.636.439 8.054.732 10.544.146s14.937-13.253 14.937-13.253h12.74s4.687 8.713 9.08 10.763c4.393 2.05 10.983 3.515 15.523 2.783 4.54-.732 17.28-5.711 17.28-5.711s.147 2.196-2.05 6.59c-2.197 4.393-5.418 10.25-11.13 14.937-5.71 4.686-12.594 8.347-19.33 10.397-6.737 2.05-15.377 3.222-20.356 2.636-4.979-.586-10.104-1.318-16.548-4.686-6.443-3.368-11.862-5.711-16.695-11.276-4.832-5.565-8.786-10.69-9.372-14.79-.586-4.101-.146-8.495-.293-8.495z" fill="#ef9232" fill-rule="evenodd"/><path d="M48.639 96.49v16.108M51.65 98.1v17.867m3.012-17.134v19.623m3.012-18.452v20.136m3.012-19.623v21.38M45.627 95.172v14.424m-3.012-16.401v12.3m21.083-4.978V123.8m3.012-23.283v24.749m3.012-25.921v27.532m3.012-30.461v31.632m54.213-30.021v14.571m-3.012-13.618v16.987m-3.012-16.036v18.525m-3.012-18.012v19.696m-3.011-19.037v20.794m15.059-24.675v12.374m3.011-13.473v9.373m-21.082-4.613V123.8m-3.012-23.283v24.749m-3.012-25.921v27.532M102.852 98.1v29.948" fill="none" stroke="#000" stroke-width=".6"/><path d="M88.563 61.594l-7.626 7.625 2.188 2.187L88.563 66 94 71.406l2.188-2.187-7.626-7.625z" fill="#ffcb05" stroke="#000" stroke-linecap="square" stroke-linejoin="bevel"/><path d="M123.019 53.821l3.003-.621a71.047 71.047 0 004.64 1.628c.688.376 1.227.966 1.87 1.41a4.976 4.976 0 011.655 1.986c.068.61.733 1.436.051 1.904-.583.387-.947 1.223-1.63 1.367-1.273.05-2.548.195-3.82.161-1.139-.186-2.289-.298-3.432-.423-.582-.204-1.409-.237-1.827-.582l-.51-6.83zm27.855-19.778c.793-.83 1.363-1.924 2.313-2.572.742-.275 1.229-.89 1.75-1.448.757-.6.858-1.662 1.505-2.322.505-.79 1.51-.307 1.465.548.065.848.708 1.422 1.175 2.069a5.86 5.86 0 001.835 1.784c.856.53 1.073 1.774.67 2.659-.177 1.081-1.904.843-1.966 2.104-.294.991.217 2.05.055 3.08-.661.432-1.43.75-1.866 1.45-.732.993-1.763 1.67-2.753 2.373-.778.565-1.18 1.38-1.057 2.341-.393.851-1.303 1.66-2.009 2.213-.77-.124-1.745.138-2.356-.412a48.152 48.152 0 00-.124-3.873c-.273-1.123-.965-2.19-.883-3.366l.279-5.489 1.967-1.14z" fill="#ffcb05" fill-rule="evenodd" stroke="#000"/><path d="M152.082 39.377c.5-.512 1.006-1.02 1.58-1.452.34-.29.655-.608 1.001-.892.286-.047.674.134.861-.176.499-.6.966-1.227 1.445-1.844.27.228.232.601.152.904-.049.359-.426.475-.665.681-.338.2-.646.448-.566.886.026.51-.57.377-.876.55-.4.218-.788.477-1.071.841a42.618 42.618 0 00-1.394 1.705c-.307.132-.652.133-.978.185-.512.046-1.027.042-1.54.076-.022-.298-.336-.819.184-.842l1.867-.622z" fill-rule="evenodd"/><path d="M49.083 91.307c2.415-1.544 4.939-3.193 7.859-3.494 1.688.017 3.372.2 5.062.198 1.273-.037 2.48.374 3.63.878L76.73 93.17c-1.38 2.14-2.76 4.28-4.142 6.42l-21.642-3.832-1.864-4.452z" fill="#ffcb05" fill-rule="evenodd" stroke="#000"/><path d="M147.469 101.542c1.456-.47 2.589-2.222 4.302-1.573 1.563.21 2.577 2.52 4.245 1.676 1.21-.898 2.92-1.027 4.23-.296 1.135 1.039 2.357 2.1 4.024 1.961 1.465-.087 2.497 1.28 2.618 2.627.506 1.312-.195 2.62-1.243 3.404-.922 1.286-2.502 1.65-3.982 1.328-1.5-.356-2.686.71-3.684 1.66-1.168 1.088-3.059.89-4.14-.223-.913-1.133-3.165-1.124-3.46.52-.116 1.484 1.179 3.123.12 4.482-1.076.902-2.225 1.73-3.234 2.674-1.36.554-2.816-.22-3.605-1.346-.597-1.365-2.107-1.495-3.006-2.593-.713-1.438-2.263-2.224-2.936-3.65.082-1.262 1.122-2.322 1.585-3.507 1.465-2.814 2.89-5.65 4.358-8.462 1.18.82 2.536 1.707 4.044 1.45l-.01-.03-.226-.102h0z" fill="#ffdb07" fill-rule="evenodd" stroke="#000"/><path d="M145.126 105.203c.67-.19 1.331-.412 2.007-.582 1.21.153 2.425.345 3.648.3.655-.129.193-1.19.823-1.289.673.333-.06 1.292.355 1.812.56.422 1.3.135 1.934.311.625.06 1.251.091 1.878.093.237-.167.537-1.142.708-.412.308.75 1.252.445 1.877.554.454.077 1.276-.113 1.447.278-.376.581-1.213.23-1.792.362-.503-.046-1.116.287-.863.844-.355.653-1.024-.14-1.009-.584-.525-.483-1.29-.229-1.927-.347-.707-.056-1.414-.14-2.124-.133-.524.432-1.373.454-1.86-.045-.416-.278-1.337-.673-1.492.07.235.457-.458 1.418-.711.659.022-.622-.447-1.258-1.103-.997-.706-.04-1.23-.54-1.796-.894zm5.593 7.28c-.867-.35-1.738-.689-2.602-1.046-.618-.503-1.333-.917-1.794-1.586l-.73-.889-1.087-.621c-.318-.006-.206.427.052.416.443.31.933.59 1.224 1.063.588.765 1.219 1.495 1.84 2.23.353.48.978.58 1.48.835l1.358.582.259-.984z" fill-rule="evenodd"/><path d="M26.56 66.3c.391 1.695 1.187 3.26 2.158 4.694 1.054 1.783 2.098 3.662 3.842 4.867.59.5 1.357.9 1.912 1.359l-2.32 10.41-5.125-4.607c-.549-2.436-1.184-4.867-1.446-7.354.01-2.21-.085-4.43.133-6.633.198-.936.567-1.825.847-2.737z" fill="#ffcb05" fill-rule="evenodd" stroke="#000"/><path d="M31.635 80.848s-1.605-.518-2.175-1.709c-.57-1.19-1.139-4.09-1.139-4.09s1.088 2.485 1.76 3.417c.674.932 2.175 1.243 2.175 1.243l-.621 1.14z" fill-rule="evenodd"/><path d="M32.619 147.742c-1.568.23-2.273.422-3.003.725-1.243 1.036-1.657 1.14-1.657 2.796 0 1.657.103 3.831 1.45 3.935 1.346.103 3.727 0 5.695-.932 1.967-.932 8.284-6.213 9.423-6.213 1.14 0 1.967 0 2.382.828.414.829.207 1.45 1.139 2.589.932 1.14 2.692.828 4.245 1.14 1.554.31 2.071 1.656 3.521 1.863 1.45.207 1.657 1.036 2.071 1.45.414.414 1.243 1.139 2.796.725 1.553-.415 2.796-3.003 2.692-4.97-.103-1.968-.621-2.693-1.346-3.418-.725-.725-1.45-1.14-.828-1.968.621-.828 1.035-1.035 2.07-.414 1.036.622.622 1.968 1.658 2.278 1.035.311 3.313.932 4.452.415 1.14-.518 3.107-.932 3.832-.932.725 0 5.177-4.867 5.177-4.867l-1.967-3.417s-.104-.622-1.864-1.14c-1.76-.517-4.039-.517-4.66-.517-.621 0-1.035 1.139-1.657.31-.621-.828.414-1.242-.725-1.45-1.139-.206-2.485.311-3.313.829-.829.518-2.175 1.346-4.246 1.346-2.07 0-1.864-.31-1.864-.31s.932-1.036 1.553-1.45c.622-.414 2.693-.725 4.246-.621 1.553.103 2.485-.725 2.382-2.175-.104-1.45-1.243-2.692-1.864-3.417-.621-.725-2.382-.932-3.314-.725-.932.207-2.485 1.346-2.9 2.382-.413 1.035-2.588 1.346-3.727 1.967-1.14.621-3.728 2.589-3.728 2.589s.518-.31 1.553-1.76c1.036-1.45 2.382-3.107 3.107-4.453.725-1.346.103-2.175-.104-3.832-.207-1.656-2.381-4.142-2.796-4.556-.414-.414-3.003-1.139-3.417-.207-.414.932-.725 2.382-1.035 3.624-.31 1.243-.829 2.175-1.554 3.107-.724.932-1.967 4.038-1.967 4.038s.518-1.035.621-2.174c.104-1.14-.103-2.485-.517-3.935-.415-1.45-1.45-2.693-3.107-4.142-1.657-1.45-3.314-2.693-4.556-3.107-1.243-.414-1.968.31-2.382 1.14-.414.828 0 1.967.104 3.002.103 1.036-.829 2.175-.829 3.417 0 1.243.518 2.175.518 2.175s-.932-.518-1.967-.725c-1.036-.207-1.864.207-3.003-.207-1.14-.414-1.968-1.864-2.9-2.07-.932-.208-2.278 1.035-2.9 2.38-.62 1.347-.517 3.107.415 4.04.932.931 1.657.413 3.21 1.345 1.553.932-.31 1.76 1.45 2.59 1.76.828 2.381.103 3.106.931.725.829.518 1.45 1.553 2.485 1.036 1.036 1.347-.31 2.59-.207 1.242.104.31.725.31 1.554 0 .828 1.967 1.035 3.21.724 1.243-.31 1.864-.31 3.003 1.243 1.14 1.553 0 1.45-.828 2.485-.829 1.036-4.97 1.14-9.01 1.864z" fill="#ffd304" fill-rule="evenodd" stroke="#000"/><path d="M36.864 135.212c-1.398-.466-3.003-.673-3.624-1.19-.621-.518-1.398-1.295-1.036-1.657.363-.363 1.14.259 2.071.725.932.466 2.848.983 2.848.983s.259-1.605-.466-2.278c-.725-.673-1.45-1.242-1.398-1.553.052-.31 1.346.259 1.398.57.052.31.829 1.139.88 1.605.052.466.466 2.07.622 2.33.155.258 1.553 1.553 1.553 1.915 0 .363-.31.518-.777.363-.466-.156-.57-1.191-1.087-1.45-.518-.259-.88-.259-.984-.363zm3.21-9.267c0 1.656 0 3.054.26 3.78.258.724.931 2.38.931 2.847 0 .466.777 1.087.725 1.45-.052.362-.155.932-.57.414-.414-.518-.57-2.071-.983-2.693-.414-.62-1.14-3.002-1.864-3.986-.725-.984-1.657-1.605-1.812-2.123-.156-.518.259-1.087.517-.828.26.258.674 1.294 1.14.724.465-.57.569-1.346 1.035-1.242.466.103.57.362.673.673.104.31-.052 1.035-.052.984zm8.388 5.747c.828-1.036 1.76-2.33 1.916-2.9.155-.57.207-1.035.414-.88.207.155.31.31 0 1.243-.31.932-.777 2.33-1.346 3.21-.57.88-1.502 1.553-1.709 1.242-.207-.31-.103-.673.155-1.19.26-.518.674-.674.57-.725zm19.169 12.065c-1.49-.725-2.747-1.336-3.512-1.42-.765-.084-2.55-.203-2.968-.407-.42-.204-1.318.223-1.621.018-.304-.205-.77-.547-.124-.693.647-.146 2.112.393 2.852.292.74-.1 3.199.289 4.4.067 1.202-.222 2.168-.788 2.702-.702.533.087.864.709.518.828-.346.12-1.458.04-1.15.708.309.668.962 1.1.665 1.474-.297.374-.575.354-.9.311-.324-.042-.908-.499-.862-.476zm-19.583-.727c.828 1.036 1.398.829 1.915 1.502.518.673 1.502 1.916 2.796 2.278 1.295.363 2.59 2.33 3.21 2.744.622.415 1.347.88 1.554.829.207-.052-1.191-.829-1.554-1.346-.362-.518-.466-1.657-1.346-2.175-.88-.518-2.64-.984-3.21-1.76-.57-.777-1.139-2.02-1.657-2.434-.517-.414-.517.207-.88.207-.362 0-.57-.466-.828-.259-.26.207.052.57 0 .415z" fill-rule="evenodd"/><path d="M35.363 87.372s.673.259 1.035 1.242c.363.984.363 6.731.31 8.077-.05 1.347-.206 2.952-1.035 3.832-.828.88-2.95 2.174-2.95 2.174" fill="none" stroke="#000"/><path d="M4.76 74.23c5.83 2.86 11.328 6.55 15.697 11.395 1.826 1.83 3.205 4.093 5.436 5.488 1.814 1.191 4.193 1.486 5.633 3.24 1.733 1.154.168.834-1.021.682-1.714-.111-3.409-.294-4.905-1.208-1.354-.929-2.7-1.863-4.3-2.345-2.991-1.458-6.401-1.123-9.618-.96-3.366.59-6.598 1.74-9.778 2.965a13.83 13.83 0 004.79 3.543c1.618.727 3.348 1.004 5.095 1.217-2.086.73-4.213 1.53-5.684 3.267-1.54 1.209-2.137 3.121-3.176 4.714.833 1.203 2.557.86 3.819 1.319 1.612.06 3.327.247 4.9-.11 2.67-.645 4.882-2.9 7.758-2.6 2.013-.03 4.183.293 5.929-.952 1.447-.556-.852 1.065-1.078 1.699-1.742 2.38-2.74 5.203-3.462 8.04-.046 2.226-.341 4.632.952 6.59-.188-1.173.114-2.186.968-3.021 1.911-2.37 4.344-4.287 6.501-6.436 1.227-1.397 3.154-2.289 3.639-4.199.33-.752-.532 1.809-.686 2.403-1.1 3.44-2.62 6.84-2.573 10.517-.648 1.67.927 1.143 1.7.354 1.871-1.806 3.65-3.73 5.974-4.964.687-1.24 1.794-2.355 1.506-3.882l.573-20.093c-4.624-3.838-9.092-7.914-14.104-11.235-2.823-1.212-5.472-2.922-8.558-3.373-3.323-.829-6.655-1.609-10.081-1.842l-1.847-.213z" fill="#ffb805" fill-rule="evenodd" stroke="#000"/><path d="M8.957 94.413c1.313-.17 2.624-.36 3.938-.517 1.789.006 3.578-.026 5.365.046.76.033 1.523.017 2.28.085l2.034.231c-.27.168-.527.373-.804.52-1.334.084-2.666.201-4.001.265-1.221.027-2.443.075-3.664.09-1.241-.09-2.485-.162-3.724-.262l-1.424-.458zm4.712 7.042c.672-.45 1.363-.875 2.122-1.164.548-.32 1.198-.141 1.799-.175 1.715.043 3.23-.11 4.939-.273.717-.326 1.537-.682 2.315-.89.79-.315 1.65-.494 2.352-.992l1.436-.907c-.69.61-1.335 1.28-2.053 1.852-.772.39-1.64.628-2.286 1.227-.42.41-.944.638-1.502.797-.537.265-1.133.105-1.705.113-1.593-.054-3.188-.138-4.78-.14-.888.141-1.77.309-2.637.552zm13.306 5.436s.104-1.242.932-2.433c.828-1.191 3.262-3.417 3.262-3.417l1.087.466s-2.278 1.708-3.106 2.64c-.829.932-2.123 2.9-2.175 2.744zM33.24 113s1.45-1.035 1.605-1.708c.155-.673.621-3.572.621-3.572l1.554 2.433s-.518 1.346-1.398 2.02c-.88.672-2.382.88-2.382.828zm-.932-24.075s-1.605-1.553-3.21-2.537-4.815-2.33-4.815-2.33 2.433 2.02 3.676 2.9c1.242.88 4.142 2.899 4.142 2.899l.207-.932zm11.845-1.515c.845.606 1.691 1.337 2.766 1.462 1.069.24 2.17.241 3.26.241.49.168.565.74.76 1.15.109.257.6.797.134.922a17.166 17.166 0 01-4.273-.773c-.773-.2-1.543-.413-2.298-.673-.587-.553-1.293-.987-1.778-1.643-.324-.313-.917-.326-1.07-.81-.072-.5.648-.935 1.019-.544.279.394.747.636 1.23.61.084.014.168.032.25.058zm2.562 30.607s4.54 5.125 10.105 8.347c5.565 3.222 6.883 3.954 16.548 6.736 9.665 2.783 20.502 2.344 26.8.88 6.296-1.465 15.083-4.248 19.183-6.884s11.862-8.933 11.862-8.933l-10.836 7.176s-8.055 3.954-11.57 4.979c-3.514 1.025-15.815 3.661-15.815 3.661s-12.155 0-16.402-1.025c-4.247-1.025-13.034-4.1-17.134-6.297s-12.448-8.787-12.74-8.64z" fill-rule="evenodd"/><path d="M137.412 152.92c-.703-1.605-1.008-3.934-2.97-4.463-2.356-.306-2.646 2.665-4.321 3.697-2.509 2.207-5.264 4.173-8.336 5.515-2.744.827-5.79.488-8.345 2.008-1.1.712-4.272 2.723-2.529.105 1.254-2.876 2.274-6.032 4.718-8.145 1.085-1.815 4.541-3.423 5.272-3.752-2.801.48-6.022.894-8.416-.993-1.968-1.11-3.925-2.247-5.93-3.292 1.242-1.679 2.942-2.975 4.924-3.63 1.936-1.038-2.643-1.264-3.216-2.686-1.475-1.177-3.918-3.68-.732-4.084l10.31-4.718c2.33 2.093 4.309 4.566 6.408 6.828 1.779.708-.918-2.87-.598-4.032-.173-2.411-.1-4.832-.114-7.25 1.766-1.028 3.376-1.46 4.311.738 1.804 2.232 3.592 4.487 5.112 6.926-.16-4.445-.08-8.954.786-13.324l3.874-8.94c1.611 2.473 1.905 5.53 2.69 8.325.365 3.08.867 6.21.265 9.297.11 1.58-1.344 4.853-.408 5.288 3.032-.953 5.09-3.612 7.022-5.987.599-.843 2.253-3.954 1.78-1.111.087 2.96-.124 6.08-1.672 8.678-1.764 2.367-3.305 4.946-5.674 6.785-1.366 1.573-4.589 3.579-3.134 5.936 2.173 2.605 3.662 5.737 5.55 8.559 1.352 2.06.932 4.412-1.564 5.087-2.494.768-3.571-2.22-4.215-4.069-.367-1.075-.561-2.199-.848-3.296z" fill="#ffd304" fill-rule="evenodd" stroke="#000"/><path d="M120.534 148.001s2.588-1.346 5.022-2.02c2.433-.672 6.11-1.138 6.11-1.138" fill="none" stroke="#000"/><path d="M117.065 155.767c.578-.884 1.14-1.78 1.728-2.658.738-.646 1.44-1.34 2.202-1.956 1.091-.625 2.145-1.323 3.305-1.817.656-.299 1.292-.656 2.006-.797l1.424-.383c-1.43.835-2.875 1.645-4.258 2.557-1.417.87-2.77 1.836-4.115 2.813l-2.292 2.241zm-4.971-12.27c1.395-.463 2.782-1 4.25-1.176 1.072-.244 2.174-.258 3.267-.229 1.552-.006 3.104.03 4.65.162.385.37-.185.89-.573.612-1.827-.039-3.658-.194-5.484-.08-2.039.217-4.074.465-6.11.71zm-.362-10.563c1.886 1.636 3.74 3.322 5.814 4.721.762.618 1.597 1.172 2.555 1.427 1.383.506 2.738 1.114 4.166 1.482.26.006.979.383.956.04-.712-.661-1.72-.793-2.562-1.224-1.831-.753-3.73-1.443-5.307-2.674-1.229-.864-2.432-1.776-3.48-2.857-.585-.38-.996-1.398-1.793-.992l-.35.077zm15.481-3.779c-.293 1.346-.428 2.737-.28 4.11-.033.525.261 1.002.626 1.355 1.044 1.283 2.22 2.459 3.17 3.816.231.104.386.86.625.553-.04-.678-.549-1.191-.753-1.816-.538-1.095-1.368-2.021-1.856-3.144-.349-.577-.891-1.118-.858-1.843-.063-.697-.132-1.398-.105-2.1l-.57-.931zm8.284 1.708a20.497 20.497 0 01-.142-5.256c.132-.966.519-1.869.802-2.796.17-.485.379-.961.664-1.391-.116-.478.73-.263.394.103.18 2.779.25 5.6-.33 8.34-.1.656-.139 1.385-.604 1.904-.533.194-.425-.592-.713-.823-.023-.028-.047-.054-.071-.08zm1.708 9.475c.744-.66 1.495-1.314 2.235-1.98l2.477-3.767c-.391.466-.747.964-1.163 1.409l-1.995 1.646-1.657.673.103 2.02z" fill-rule="evenodd"/><path d="M155.01 78.843c1.967-.054 2.325-2.733 4.217-2.959 1.46-.33 2.689 3.125 3.857.896.85-1.43 3.078-2.27 4.39-.976.784.763 1.633 2.046 2.908 1.593 1.994-.562 3.836 1.767 3.066 3.618-.501 1.448-2.105 2.373-3.603 2.154-1.418.293-.96 2.211.389 2.067 1.313.875 1.665 2.887 3.367 3.224 1.137 1.148.919 3.384-.18 4.467-1.743 1.376-4.134 1.725-5.652 3.42-1.226 1.326-3.604 1.209-5.057.267-1.055-.87-2.154-2.611-3.744-1.934-1.262.586-1.961 2.392-3.564 2.112-1.272-.658-2.853-1.678-4.203-.53-2.023.984-4.619.397-6.081-1.283-.937-1.318.385-2.734.455-4.13 1.01-4.08 2.024-8.158 3.031-12.237 1.26-1.057 3.04-.172 4.504-.442.66.141 1.256.48 1.9.673z" fill="#ffdb07" fill-rule="evenodd" stroke="#000"/><path d="M151.203 87.41c1.437-.434 2.91-.791 4.25-1.49.526-.202 1.09-.427 1.397-.93a12.12 12.12 0 001.964-2.675c.12-.299.738-.966.949-.614-.283.483-.524.98-.591 1.546-.147.488.1.73.478.345 1.02-.601 2.045-1.192 3.049-1.82l2.196.293c-.578.711-1.617.568-2.322 1.08-.778.44-1.625.81-2.21 1.514-.387.51-.994.7-1.598.797-.701.126-1.385.347-1.988.733-.794.421-1.57.875-2.319 1.374-.657.137-1.339.06-2.003.021-.418-.05-.833-.128-1.252-.174zm-1.611 3.149c2.782.694 5.613 1.622 8.519 1.265 3.861-.328 7.683-1.002 11.544-1.339.729-.442-.483-.883-.81-.456-2.656.372-5.354.53-7.952 1.232-.78.009-2.197-.059-2.25-1.047.357-.712 1.056-1.32 1.826-1.543 2.333-.434 4.775-.463 7.003-1.36 1.174-.473 2.177-1.746 1.895-3.06-.802-.806-1.148.896-1.482 1.416-.569.986-1.636 1.722-2.803 1.668-1.688.174-3.382.281-5.07.45-1.844.597-2.851 2.601-4.79 3.013-1.148.321-2.379.019-3.364-.605-.729-.288-1.784-.404-2.266.366zM50.926 69.873a1.599 1.599 0 001.245 1.099s.366-.073.732.073.366.769.622.879c.256.11.366-.037.33-.366-.037-.33 0-1.099-.44-1.318-.44-.22-.586.11-1.098-.184-.513-.292-.622-.915-.989-.805-.366.11-.402.696-.402.622z" fill-rule="evenodd"/><path d="M42.456 59.827c-5.137-2-11.388-1.828-15.9 1.57-1.603 1.042-1.887 3.278.528 2.906 2.866.69 5.083 3 8.1 3.218 2.474.645 4.965-.003 7.208-1.094 2.609-.54 4.72-3.537 7.63-2.361 3.222 2.133 6.664 4.094 10.505 4.855 2.12.278 5.06 1.797 6.692 1.156-.117-2.605-3.915-2.173-5.593-3.411-2.323-.966-6.228-2.396-5.945-5.369 1.224-2.017 3.144-3.527 4.368-5.57 2.77-3.69 2.854-8.5 2.688-12.911-.118-1.925.475-4.755-1.36-5.898-1.888 2.152-3.143 4.99-4.398 7.61-.876 2.15-2.212-1.726-2.174-2.98-.208-3.193-.265-6.394-.5-9.582-.472-1.494-.999 2.027-1.69 2.604-.77.943-1.586 3.854-2.152 3.927.159-3.641.808-7.318.24-10.95-1.497-2.7-3.377-5.39-6.028-7.033-.928-1.081-2.371-1.002-1.468.683.58 3.328.401 6.762-.337 10.05-2.657-3.64-4.713-7.665-7.085-11.488-1.01 4.083-.042 8.34.464 12.437.63 3.251.866 6.618 1.934 9.759.746 1.942 1.658 3.816 2.41 5.757-4.904-2.893-9.923-5.795-15.493-7.188 3.008 6.78 7.64 13.004 14.017 16.942 1.117.781 2.223 1.578 3.339 2.361z" fill="#ffb805" fill-rule="evenodd" stroke="#000"/><path d="M40.492 46.699l3.514 4.832 3.588 3.881 1.465 1.977-3.369-3.148-4.1-4.54-2.27-2.49 1.172-.512zm-6.224 1.464c1.076 1.26 2.12 2.55 3.217 3.789 1.044.815 2.048 1.684 3.122 2.46.87.557 1.715 1.166 2.605 1.685l1.82.56c-1.931-1.767-3.801-3.604-5.828-5.264a104 104 0 00-2.79-2.228l-2.146-1.002zm-2.05 14.498c.997.24 1.99.516 2.99.734.89.021 1.778.054 2.667.068.78-.163 1.573-.281 2.346-.473l1.808-.695c-1.154-.17-2.306-.348-3.461-.512-1.015.042-2.034.039-3.04.191-.696.095-1.409.114-2.078.342l-1.232.345zm9.812-26.287c.225 1.4.432 2.802.67 4.199.641 1.42 1.232 2.865 2.016 4.214a33.38 33.38 0 011.594 3.258c.145.302.378.891.469 1.015-.229-1.25-.39-2.513-.67-3.752-.235-.86-.413-1.74-.69-2.586-1.135-2.113-2.201-4.263-3.39-6.348zm.658-4.759l2.636 4.393 1.83 2.93.88 2.123.22-1.465-.44-7.615-.513-1.391.22 3.588-.22 2.636-1.684-2.27-1.538-1.977-.292-1.391-.66-1.465-.439 1.904zm7.534 6.466l-.31 3.107c-.3.456-.47 1.09-1.062 1.25-.547.364-.39 1.11-.602 1.65-.037.684.756 1.074.725 1.767.24 1.82.462 3.646.503 5.482.132.494.559-.355.453-.617.019-1.055.052-2.111-.029-3.165-.054-1.048-.16-2.096-.176-3.146.142-.773.41-1.525.749-2.238.39-.666.356-1.459.487-2.197.078-.856-.012-1.715-.014-2.571-.23-.149-.505.58-.724.678zm3.469 6.421c.11 1.502.363 3 .292 4.51-.02.694 0 1.396-.054 2.087-.172.568-.094 1.264-.578 1.693-.29.451-.392 1.004-.462 1.528-.075.696-.114 1.394-.181 2.09-.527-.307-.358-.99-.414-1.494-.064-1.515-.162-3.03-.194-4.545.138-.683.154-1.399.382-2.059.245-.463.511-.936.54-1.471.112-.558.138-1.143.338-1.678l.331-.661zm2.071.828c.225.534.73.996.725 1.594-.015 1.927.034 3.855-.028 5.78-.063.864-.108 1.73-.191 2.593l-1.541 3.288 2.07-3.262c.233-1.095.442-2.195.688-3.288.709-1.29 1.453-2.565 2.038-3.919.09-.208.378-.78.337-.749-.626.967-1.145 2.014-1.938 2.862-.18.16-.542.827-.452.243-.03-1.354.113-2.73-.196-4.06-.21-.43-.315-1.075-.59-1.373l-.922.291zm64.285 36.296c1.64-.204 3.29-.333 4.912-.656.343.023.979-.212 1.087.258-.08.402-.455.671-.62 1.042-.13.323-.444.73-.7.262-.27-.408-.751-.455-1.195-.486l-3.484-.42zm-1.17 20.036c.639-1.042 1.289-2.078 1.92-3.124.305-1.143.7-2.263.924-3.427-.002-.508-.454-.889-.906-1.03-.425-.243.124-.834.437-.457.259.22.597.332.757.642.239.289.54.6.495 1.007.032.613-.053 1.223-.172 1.822-.133.797-.499 1.534-.896 2.23-.379.587-.843 1.114-1.242 1.686-.185.296-.37.706-.762.742-.19 0-.366-.092-.555-.091zm5.281-1.346c1.77-1.105 3.56-2.177 5.318-3.302 1.405-1.502 2.817-3.002 4.048-4.653.557-.554.826-1.278 1.05-2.014.423-1.224.932-2.434 1.034-3.739.213-1.492.406-2.997.965-4.408.538-1.617.687-3.342.635-5.036.744.452.505 1.426.425 2.184-.08 1.91-.705 3.732-.938 5.621-.215 1.64-.54 3.263-1.076 4.83-.412 1.182-.796 2.419-1.671 3.351-1.405 1.812-2.656 3.736-4.043 5.56l-5.747 1.606zm19.967-13.722c-.765-.027-.856.746-1.174 1.241-.45.599-.958 1.153-1.436 1.73-1.468 1.625-3.012 3.182-4.537 4.752-1.205 1.01-2.517 1.878-3.76 2.84.878-.244 1.766-.455 2.642-.696.652-.289 1.186-.78 1.77-1.178 1.297-1.062 2.392-2.338 3.526-3.564.26.864.072 1.787.204 2.672.088.933-.1 1.928.294 2.808.341.319.4-.641.368-.883-.05-1.856-.099-3.71-.147-5.566.417-.631.736-1.338 1.281-1.875.13 1.297.175 2.603.188 3.906.247.364.245-.754.3-1.06.058-1.157.107-2.314.137-3.471.541-.411 1.457-.255 1.76-.964-.116-.542-.916-.72-1.416-.692z" fill-rule="evenodd"/><path d="M64.823 75.67c-1.003-.999-2.068-1.934-3.031-2.973-.548-1.53-1.37-3.014-1.38-4.68a35.95 35.95 0 01-.288-6.806c-.035-1.21.058-2.44.545-3.564.71-2.01 1.875-3.833 3.28-5.427 1.085-.002 1.283 1.449 2.087 1.981.709 1.071.935 2.364 1.41 3.542.572 1.51.46 3.142.604 4.721.158 2.085-.125 4.16-.266 6.235-.145 1.51-.92 2.85-1.508 4.22-.45.934-.942 1.848-1.453 2.752z" fill="#ffb805" fill-rule="evenodd" stroke="#000"/><path d="M63.556 57.755c-.217 1.063-.376 2.138-.421 3.223-.117 1.136-.206 2.28-.097 3.422.092 1.72.115 3.447.301 5.16l.29 2.034c.083-2.118.109-4.241.264-6.355.176-1.17.423-2.333.54-3.51-.012-.752.037-1.505-.027-2.255-.197-.583-.169-1.325-.785-1.664l-.065-.055z" fill-rule="evenodd"/><path d="M67.95 84.335c-1.772-.976-3.485-2.16-5.46-2.68-1.335-.164-2.692-.558-4.033-.217-1.186.068-2.358.335-3.327 1.05-1.291.685-2.548 1.452-3.632 2.44-.443.292-1.551 1.016-.407 1.055 1.553.35 3.108.735 4.544 1.44 2.685 1.132 5.08 2.824 7.576 4.307.842.542 1.69 1.081 2.668 1.339 1.07.3 2.103.873 3.246.76 1.018-.18 2.314.169 3.164-.307-1.428-2.89-2.758-5.855-4.146-8.775l-.193-.412z" fill="#e8b80b" fill-rule="evenodd" stroke="#000"/><path d="M59.163 84.92c.536-.195 1.086-.444 1.67-.371.849-.041 1.682.165 2.497.37.667.238 1.269.623 1.912.916.435.255.954.395 1.313.758l1.907 1.842c.316.718.651 1.427.955 2.15.036.516.285 1.12-.101 1.566-.39.117-.274-.646-.48-.877-.281-.743-.73-1.41-1.158-2.074-.428-.542-.908-1.043-1.359-1.566-.488-.452-1.072-.786-1.634-1.137-.676-.385-1.392-.692-2.09-1.032-.56-.231-1.17-.291-1.76-.411-.553-.095-1.112-.117-1.672-.133z" fill-rule="evenodd"/><path d="M66.778 87.703c-.563-2.634-1.58-5.23-1.339-7.972-.053-3.985-.31-7.99.268-11.951.323-3.028.514-6.262 2.182-8.902 1.319-1.698 2.452-3.641 4.366-4.758.464-.48 1.729-1.316.795-.077-1.466 2.602-2.646 5.488-2.655 8.516a17.09 17.09 0 00.421 5.308c.582 1.594 1.634 3.025 1.799 4.758.602 2.454 1.462 4.927 1.15 7.493l-.25 15.64-6.737-8.055z" fill="#ffcb05" fill-rule="evenodd" stroke="#000"/><path d="M73.441 85.36c-.734-.673-1.491-1.32-2.211-2.008-.632-1.334-1.375-2.628-1.755-4.066a15.17 15.17 0 01-.785-3.154l-.374-2.122c.187 1.73.261 3.475.53 5.194.33 1.627.57 3.283 1.172 4.84.32 1.064.663 2.126 1.211 3.097.598 1.086 1.513 1.945 2.263 2.921.324.467.078-.542.124-.793l-.175-3.91z" fill-rule="evenodd"/><path d="M134.874 57.682c-2.03.317-3.877-1.582-3.813-3.57-.001-.974-.199-2.048-1.056-2.646-1.34-1.3-1.916-3.117-2.563-4.812-1.12-1.253-.764-2.736-.255-4.141.358-1.437.467-2.94-.488-4.162-.624-1.454.597-2.882.39-4.385.494-1.311-1.43-1.957-.902-3.15.589-1.458 2.156-1.839 3.478-2.408 1.123-.284 2.287.115 3.33.506 1.053.76.603 2.183.69 3.28-.235 1.363.663 2.68 1.82 3.317 1.293.863.72 2.507.837 3.766.444 1.254 1.506 2.294 1.273 3.743-.036 1.935 1.256 3.748.775 5.71-.596 1.224-.63 2.591-.921 3.898-.707 1.574-1.657 3.04-2.38 4.614l-.215.44z" fill="#ffcb05" fill-rule="evenodd" stroke="#000"/><path d="M135.68 48.676c.76-.463.47.903.088 1.153-.28.564-1.025.965-.88 1.657l.06 2.022c-.384.387-.66.212-.676-.306-.293-.514.059-1.306-.419-1.674-.368-.438-1.01-.467-1.395-.695-.143-.718.803-.265 1.202-.435.735.125.206-.86.1-1.237-.583-.714-1.338-1.273-2.14-1.719-.36-.164.245-.926.619-.597.688.262 1.078-.751.902-1.326-.06-.62-.334-1.191-.507-1.784-.298-.622-1.121-.754-1.57-1.032-.304-.617.303-.587.735-.544.34-.557.43-1.182.37-1.826 0-.574-.411-1.151-.91-1.429-.444-.3-.796-.738-1.316-.91-.249-.607.291-1.285.96-1.037.563-.188 1.117-.437 1.702-.583.48.497.065.882-.293 1.283-.01.62.834.954 1.196 1.308.654-.041.437.923-.126.909-.57.426-.342 1.235-.465 1.856-.02.7.23 1.325.995 1.43.487.218 1.402-.268 1.214.621-.235.517-1.174.277-1.11 1.046-.038.661.21 1.363 1.003 1.229.768-.144 1.305.855.385 1.037-.506.233.028 1.105-.683 1.314-.252.197.04 1.198.428.664.183-.124.351-.267.531-.395z" fill-rule="evenodd"/><path d="M137.29 51.824c1.193-1.863 2.791-3.55 3.262-5.776.234-1.295.44-2.64.207-3.953-.94-1.029-1.897-2.074-1.77-3.58.062-1.353 1.992-2.426.722-3.893-1.014-1.465-.375-3.25.938-4.288 1.19-.769 1.491-1.918 1.783-3.213.274-1.49 2.16-1.138 2.935-2.223.986-.698 1.233-2.327 2.735-1.92 1.33-.392 2.703.668 2.81 2.013.076 1.24-.438 2.426-.734 3.588-.267 1.452 1.878 1.727 1.685 3.27.138 1.271-.694 2.352-1.246 3.427-.15 1.518.27 3.019.21 4.503.337 1.843-2.41 2.187-2.053 4.13-.234 1.508-2.14 1.267-2.843 2.434-1.104 1.097-.09 3.312-1.578 4.016-1.662.923-2.78 2.489-3.915 3.961-1.167.841-1.895 2.723-3.394 2.776-1.533.407-2.531-1.486-1.94-2.788.37-1.01 1.51-1.647 2.187-2.484z" fill="#ffcb05" fill-rule="evenodd" stroke="#000"/><path d="M142.84 44.758c.465.78 1.079-.415 1.377-.802.265-.553.807-.784 1.378-.897.682.191.78-.818.16-.923-.71-.005-1.019-.635-.831-1.259.139-.963 1.021-1.608 1.175-2.569.11-.595.237-1.25.706-1.671.488-.07 1.154-1.001.367-1.066-.615.2-1.19-.382-.95-.988.04-.7.533-1.245.754-1.889.063-.69.655-.723 1.16-.961.379-.166.97-.775.2-.81-.552-.135-1.394.436-1.214-.488.098-.651-.06-1.38-.632-1.75-.417-.355-1.4-.125-1.219.51.547.208.904.697 1.095 1.285-.16.74.003 1.616-.366 2.265-.353.34-.578.849-1.02 1.067-.529.112-1.263.69-1.051 1.157.678.175 1.306.685 1.15 1.453-.028.524.263 1.19-.363 1.434-.397.347-1.02.666-1.505.31-.336-.426-1.318-.171-.722.366.72.125.987.76 1.225 1.374.3.721-.32 1.245-.59 1.843-.406.52-.39 1.09-.334 1.728.013.427.013.855.05 1.281z" fill-rule="evenodd"/><path d="M129.749 63.247c1.099.45 2.29 2.014 3.841 2.084 2.508-.254 5.023-.483 7.546-.35 1.306.054 2.647-.061 3.932.117 1.335.362 1.427 2.34 3.156 2.063 1.444.422 2.97-.5 3.382-1.904 1.485-.726 3.287.223 4.825-.49 1.047-.723-.36-2.796 1.324-3.119 1.16-.264 3.563.481 3.455-1.404.52-1.466-.914-1.954-2.038-2.34-1.207-.436-2.177-1.376-3.439-1.686-1.028-.143-.096-2.236.53-2.758.964-1.032 2.66-1.416 2.577-3.114.49-1.75-1.649-2.285-2.95-2.183-1.315.287-2.33-.81-3.622-.74-1.49-.182-2.411 1.045-3.38 1.933-1.003.82-2.406-.208-3.5.453-1.545.299-.71 2.642-2.397 2.719-1.085.28-2.464.107-3.293.938-1.143.905-.943 2.542-2.41 3.207-1.404.789-2.813 1.595-4.317 2.18-.308 1.776-2.186 1.383-3.239 2.26-.422.696-.599.92.017 2.134z" fill="#ffcb05" fill-rule="evenodd" stroke="#000"/><path d="M135.963 61.173c-.29 1 1.051.709 1.623.55 1.156-.166 2.29.166 3.435.268 1.043-.135 2.112-.19 3.088-.622.947-.4 2.018-.053 2.967-.465.76-.162 1.51-.367 2.16-.806.75-.222 1.533-.314 2.311-.374.426-.707.824-1.6 1.704-1.81.713-.193 1.033-1.124 1.854-1.001.465-.049 1.173-.883.356-1.032-.703-.257-1.24.71-1.805 1.046-.583.842-1.785.493-2.41 1.223-.438.85-1.476.838-2.277 1.117-.777.01-1.368.376-2.007.735-1.259-.01-2.532.06-3.767.309-.77.109-1.313.75-2.105.745-.675.087-1.376-.13-1.136-.934.15-.843.904-1.079 1.594-1.397.618-.706 1.649-.428 2.273-1.034.601-.721 1.722-.5 2.38-1.138.814-.42 1.756-.356 2.632-.538.49-.73 1.373-1.058 2.23-.985.681-.11 1.523-.05 1.921-.722.129-.603.171-2.364-.797-1.468-.712.382-.97 1.368-1.826 1.45-.98.138-1.782.932-2.801.77-.81-.151-1.477.185-2.084.687-.962.429-1.97.767-2.948 1.165-.901.175-1.5.845-2.173 1.413-.8.521-1.492 1.198-2.39 1.539-.649.466-1.318.896-2.002 1.31z" fill-rule="evenodd"/><path d="M103.551 76.81c.7-1.495.836-3.427 2.363-4.367.782-.75 3.014-.586 1.537-1.982-1.599-.743-.959-3.015.718-2.87 1.605.157 3.78.125 3.265-2.134-.326-2.128 2.443-2.935 3.904-2.243 1.105 2.12 2.29 4.22 2.88 6.557.587 2.13 1.854 4.216 1.422 6.489-1.497.993-.514 3.22-2.485 3.866-.644.82-1.247 1.816.265 1.456 2.05.02 3.973-.836 6.002-1.02.855.371 3.021.287 1.52 1.43-.842 1.589-3.05 1.725-3.146 3.776-.232 1.077-1.466 1.944-1.78 2.704 2.4-.167 4.782-.55 7.145-.997 1.01-.993 3.727-2.078 4.263-2.07l-11.926 13.15-18.328-3.728 2.381-18.017z" fill="#ffcd05" fill-rule="evenodd" stroke="#000"/><path d="M107.383 86.026c.551-.058 1.156-.02 1.52-.521.537-.441 1.084-.882 1.444-1.487a15.892 15.892 0 012.191-2.606 10.512 10.512 0 011.74-1.074c.22-.515-.657-.378-.973-.389-.451.105-1.379.477-1.16-.312-.015-1.398.04-2.8-.034-4.196-.147-.722.046-1.574-.535-2.128-.406-.574-.79-1.18-1.438-1.504-.615-.5-1.409-.632-2.134-.902-.404.32-.672.623-.01.736 1.015.36 1.886 1 2.806 1.542.158.775.503 1.534.383 2.338-.016 1.415-.191 2.819-.398 4.216-.175.22-.388 1.157-.516.488-.216-.394-.286-1.132-.595-1.308-.422.13-.804.284-.475.75.3.602.252 1.255.196 1.905.045.637-.175 1.215-.441 1.779l-.64 1.534c-.333.324-1.074.43-.931 1.01v.129zm13.72.517c-.524.31-1.04.633-1.569.935-.625.1-1.245.243-1.874.312-.506.008-1.014.056-1.52.033-.33-.06-.673-.076-.993-.17l-1.24-.695c-.16.056-.519.083-.196.21.538.333 1.048.718 1.637.96.58.27 1.147.57 1.764.744l1.092.364c.432-.05.873-.051 1.3-.135l1.185-.331c.007-.323-.102-.661-.003-.974l.418-1.253z" fill-rule="evenodd"/><path d="M117.448 75.402c-.509-.42-1.105-.777-1.56-1.236-.187-.558-.435-1.106-.331-1.709.041-2.826.136-5.651.133-8.478-.504-.704-1.22-1.289-1.432-2.16-.2-.693-.165-1.197-.545-1.794-.004-.897-.461-1.492.13-2.199.24-.317.605-1.113.721-1.45-.357-.773-.74-1.537-.84-2.394-.242-.486.243-.858.418-1.28 1.033-1.5 2.14-2.953 3.16-4.466.862-.986 1.823-1.866 2.925-2.582.456-.123.984-.02 1.468-.054.475.608 1.058 1.151 1.252 1.924.29.644.53 1.302.56 2.014.065.786.24 1.543.561 2.264.278.81 1.183 1.259 1.347 2.131.157.594.603 1.164.351 1.79-.14.746-.232 1.507-.642 2.165-.272.514-.522 1.034-.506 1.63-.174 1.017-.126 2.04-.058 3.065-.006.636.21 1.314-.187 1.876-1.039 2.45-2.439 4.728-3.599 7.117l-1.203 3.68-2.123.146z" fill="#f3c409" fill-rule="evenodd" stroke="#000"/><path d="M118.839 57.39c-.85.428.75 1.042.548 1.73.194.762.02 1.556-.088 2.32-.225.53-.239 1.542-.994.885-.56.004-.904-.886-1.192-.884-.248.617.573.957.83 1.44.395.465.791.929 1.189 1.391.2.7.369 1.415.293 2.149.05 2.118-.098 4.232-.22 6.345.786-.495.55-1.49.73-2.27.273-2.194.31-4.408.563-6.604.072-.72.271-1.465.769-2.015.583-.89 1.327-1.652 2.038-2.438-.68-.386-1.04.585-1.54.886a20.742 20.742 0 00-1.535 1.604c-.14-1.072-.218-2.167-.103-3.241.601-1.103 1.081-2.283 1.347-3.514.097-.515 1.119-1.239.567-1.638-.449.033-1.209.91-1.002-.012.148-.42-.408-1.641-.685-.79-.162.535.001 1.5-.783.92-.507-.505-1.11.098-.539.51.884.236 1.325 1.197 1.214 2.05-.098.495-.113 1.473-.766 1.461-.213-.097-.428-.19-.641-.286z" fill-rule="evenodd"/><path d="M118.566 74.22c1.483-.482 2.927-1.124 4.488-1.313.91-.115 1.662-.68 2.467-1.076.571-.316 1.023-.8 1.582-1.135.856.04 1.825-.428 2.593.007.708.284 1.363.99 2.168.745.753.034 1.314-.41 1.836-.897.723-.335.839-1.023.904-1.74l.323-1.942-1.76-4.35-3.314-1.553c-.915.007-1.847-.08-2.726.242-.651.258-.292 1.374-.666 1.943-.391.567-.687 1.266-1.412 1.46-.66.216-.522 1.094-.788 1.636-.636.465-1.645.571-1.96 1.346-.411.737-.593 1.655-1.297 2.18-.484.713-1.422.719-2.02 1.197-.242.749-1.332 1.478-.962 2.241l.544 1.01z" fill="#f9cc07" fill-rule="evenodd" stroke="#000"/><path d="M122.06 68.3c.639-.072 1.276-.18 1.92-.147.359.088.603-.188.874-.37.398-.29.799-.577 1.251-.775.373-.201.823-.056 1.23-.1.295.02.4-.37.657-.471.279-.107.54-.309.853-.261h1.343c.014.267.006.537-.127.777-.064.444-.637.249-.956.384-.389.108-.74.327-1.116.476a1.527 1.527 0 01-.939.193c-.332-.083-.563.129-.794.334-.245.185-.472.409-.737.559-.816.196-1.624.425-2.433.645l-1.465-.147.44-1.098z" fill-rule="evenodd"/><path d="M44.094 64.938c-.298.01-.564.1-.719.28-.621.726-.697 1.454-.594 2.282.104.828.407 1.344.407 1.344s-2.28-.538-3.626.187c-1.346.725-2.503 1.99-2.843 2.281-2.757 3.368-3.102 4.672-3.688 6.063-.586 1.391-1.26 2.87-1.406 4.188-.146 1.317-.282 5.178-.063 7.374.2 2 .476 4.287.532 4.75-.083-.228-.285-.463-.688-.5-.805-.073-2.34.433-3 1.532-.659 1.098-.959 2.578-.812 3.75.146 1.171.735 2.549 1.687 3.281.952.732 1.985.969 3.157.969 1.171 0 .196 1.287 1.093 3.062.897 1.776 1.39 2.476 2.5 4.031 1.099 1.538 4.964 7.769 8.625 10.844 3.661 3.076 10.845 7.772 15.532 9.969 4.686 2.197 8.062 3.5 15.53 5.844 7.47 2.343 14.332 2.064 17.407 1.625 3.075-.44 5.865.12 10.844-1.344 4.979-1.464 12.01-4.083 16.844-6.719 4.832-2.636 8.338-5.714 12-9.375 3.66-3.66 7.783-9.588 9.687-13.469 1.904-3.88 3.425-9.018 3.938-12.093.512-3.076 1.03-8.5 1.03-8.5s1.77-.06 2.282-.938c.513-.878.781-3.594.781-3.594s1.56.359 2.219-.593c.659-.952 1.313-4.157 1.313-4.156l1.75-2.22s.885-.777.812-1.656c-.073-.878.13-1.977-.969-2.343-1.098-.366-4.219.719-4.219.719s.205-.718-1.406-.938c-1.61-.22-6.156 4.313-6.156 4.313s-2.12-2.861-3.219-3.813c-1.098-.952-3.281-1.625-3.281-1.625s1.019.377 1.531 2.281c.513 1.904-.875 6.813-.875 6.813s-1.184-3.518-2.062-4.25c-.879-.732-3.213-1.313-4.75-1.313-1.538 0-5.289 1.383-6.094 1.969-.805.586-5.832 4.477-6.125 5.063-.293.585.414 1.593 1 1.593.586 0 3.737.146 4.25.219.513.073.588 1.468 1.906 1.688 1.318.22 2.873.22 3.313-.22.44-.439.719-.78.719-.78s-.144 1.879-.657 3.343c-.512 1.465-3.087 2.924-4.625 3.656-1.537.733-3.362 2.289-3.875 3.094-.512.806-1.25 1.688-1.25 1.688s-2.546.864-3.937.937c-1.391.073-7.553-1.383-10.431-2.883-2.797-1.459-7.118-6.194-8.225-10.717 2.124-.635 4.988-2.38 5.846-4.397 1.04-2.442-.233-5.236-1.216-6.327-2.725-3.022-6.516-2.94-9.187-1.809-2.583 1.095-4.042 3.075-4.042 3.075s-2.379-3.136-4.93-4.127c-2.552-.99-4.728-.484-6.791 1.259-2.003 1.69-5.476 10.704 3.282 11.865 0 0-1.74 6.084-6.325 9.584-4.584 3.5-9.377 4.415-12.012 4.415-2.636 0-7.959-1.896-9.72-3.657-1.76-1.76-1.362-3.081-2.812-4.53-1.45-1.45-1.753-1.268-2.375-2.407-.621-1.14-.621-2.59 0-3.625.622-1.036.943-.906 1.875-.906s.828 1.128 1.657 1.75c.828.621 1.964.935 3 .625 1.035-.31 1.74-.63 1.843-1.563.104-.932.125-2.187.125-2.187s.83 1.164 1.969.75c1.14-.414 2.594-2.5 2.594-2.5s1.552-.191 1.656-.813c.104-.621-.234-2.304-1.062-2.719-.829-.414-2.465-1.132-3.5-2.375-1.036-1.242-.304-2.464-2.375-3.5-2.072-1.035-5.4-1.562-6.125-1.562-.725 0-1.555-.418-1.97-.625-.31-.155-1.606-.721-2.5-.688zm-3.25 26.437s.598 2.042 4.406 4.531c3.808 2.49 8.645 4.967 11.281 5.406 2.636.44 8.027.674 10.532.157 3.835-.793 11.613-5.933 16.014-12.094 0 0 3.41 3.27 6.108 3.27 2.703 0 5.2-3.63 5.2-3.63s5.065 7.904 9.459 9.954c4.393 2.05 10.96 3.513 15.5 2.781 4.54-.732 17.281-5.688 17.281-5.688s.165 2.17-2.031 6.563c-2.197 4.393-5.445 10.251-11.156 14.938-5.712 4.686-12.577 8.356-19.313 10.406-6.736 2.05-15.365 3.242-20.344 2.656-4.979-.586-10.119-1.32-16.562-4.688-6.444-3.368-11.855-5.716-16.688-11.28-4.832-5.566-8.789-10.713-9.375-14.813-.586-4.1-.166-8.469-.312-8.469z" fill="#ffcb05" fill-rule="evenodd" stroke="#000"/><path d="M126.85 76.628c.272-.166.486-.458.803-.525.28-.006.636-.29.833.005.237.194-.057.445-.083.67-.147.242-.497.198-.732.316-.297.108-.618-.02-.926-.02-.262-.096-.056-.363.105-.446zm4.876 8.732c.083-.72-.007-1.485.355-2.142.24-.703.58-1.37 1.294-1.684.6-.285 1.205-.848 1.874-.817.398.494-.656.705-.938.997-.327.407-.542.902-.814 1.35-.437.8-.682 1.69-1.143 2.48-.197.656-.368 1.318-.555 1.976-.305-.368-.043-.87-.105-1.3l.032-.86zm7.55.407c.298-1.263.677-2.512.79-3.81a17.06 17.06 0 00.224-2.872c.08-.423-.194-1.128.358-1.25.4.516.336 1.21.508 1.814.179.802.067 1.632.191 2.442.52-.058 1.399.776.525.943-.537.176-1.03.376-1 1.033-.097.466-.464 1.254.336 1.058.803-.17.74.875.2 1.077-.662.276-.95 1.01-1.446 1.49-.41.394-.853.815-1.36 1.07-.419.081-1.143.545-.967-.218.422-.493.853-.983 1.126-1.578.23-.375.374-.787.515-1.2zm6.058-11.598c-.256.55-.72 1.043-.662 1.688.036.692.196 1.377.314 2.06.309.606 1.289.169 1.698-.162.537-.406.844-1.014 1.261-1.526.684-.356 1.372-.711 2.13-.88.27-.213.804-.066.356.192-.528.315-1.294.357-1.652.865-.334.52-.67 1.05-.645 1.694-.094.67-.291 1.359.203 1.92-.542.251-.968-.413-1.475-.548-.62-.197-1.442-.022-1.659.681a1.934 1.934 0 00-.02 1.688c.433.41.898.804.928 1.464.206.912-.956.695-1.136.035-.475-.413-1.193-.8-1.005-1.555.16-1.637.408-3.31.046-4.937-.148-.708-.469-1.344-.86-1.947-.187-.304-.463-.689.049-.363.496.321.985.423 1.456-.007l.673-.362z" fill-rule="evenodd"/><path d="M79.424 73.807c-.026-1.14 1.362-2.02 2.563-2.02 1.198 0 2.79.635 3.65 2.77.852 2.114.522 5.968-.07 8.44-.575 2.404-.851 3.98-2.444 6.285m15.043-15.475c.026-1.14-1.362-2.02-2.563-2.02-1.198 0-2.79.635-3.65 2.77-.852 2.114-.973 3.99-.736 6.537.236 2.546 1.98 5.518 3.286 8.041" fill="none" stroke="#000"/><path d="M79.134 81.79c1.169.124 1.988.063 3.27-.41 1.264-.467 1.808-1.545 2.46-2.976-.787 1.068-1.373 1.763-2.521 2.244-1.155.483-2.237.371-3.172.209-.012.207-.024.726-.037.933zm18.873.311c-1.168.124-1.988.063-3.269-.41-1.265-.467-1.991-1.526-2.46-2.976.786 1.069 1.373 1.763 2.521 2.244 1.155.483 2.237.371 3.172.209.012.207.024.726.036.933zM57.16 79.554s-2.433-2.071-3.106-2.59c-.673-.517-1.191-.724-1.191-.517 0 .207.103.932.57 1.45.465.518 1.915 1.864 1.915 1.864l1.812-.207zM43.026 67.128l.931 1.294 1.243.828.829.311-.104.31-.828.156-1.347-.414-1.035-.725.31-1.76zm7.936 2.709c.31.322.48.824.902 1.004.413.208.733.11 1 .522.232.226.686.947 1.033.57.267-.253.582-1.12.32-1.31-.369-.427-1.348-.226-1.802-.551-.345-.208-.748-.377-.965-.702-.395-.345-.426.078-.463.393l-.025.074z" fill-rule="evenodd"/><path d="M119.644 94.622l3.185-.549c-.036 1.465-.22 1.83-.549 2.783-.488 1.41-2.745 4.832-2.745 4.832" fill="none" stroke="#000"/><path d="M29.582 93.707c.456-.058.938-.11 1.38.047.242.087.334.348.453.551.201.383.277.868.057 1.26-.177.379-.38.766-.4 1.19-.028.235.076.402.171.572.113.168.465.178.678.14.613-.082 1.097-.569 1.365-1.101.18-.377.276-.79.34-1.201.065-.493-.138-.98-.404-1.383-.395-.493-1.011-.732-1.6-.902-.124-.054-.245-.062-.354.018l-1.686.81z" fill-rule="evenodd"/><path d="M35.656 87.781s.969 4.379.969 5.406c0 .992-.296 2.692-.625 4.157-.322 1.43-.925 2.816-1.438 3.219-.472.37-1.546 1.197-2.937 1.343-1.043.11-1.781-.144-2.094-.281.507.332 3.57 2.015 4.469 1.469.245-.149.503-.414.75-.719.294 1.432.52 2.33.969 2.906a7.901 7.901 0 001.031 1.094s-.863-1.173-1.156-2.125c-.215-.697-.308-1.87-.344-2.594.532-.834.997-1.782 1.156-2.344.275-.97.75-2.617.75-4.374 0-1.758-.162-2.38-.406-3.25l-1.094-3.907zm12.806 32.934c4.894 2.962 22.68 13.245 42.496 12.952 19.816-.294 29.541-8.09 40.552-15.851-8.141 10.161-25.955 17.896-42.138 17.896-16.476 0-37.907-11.476-40.91-14.997z" fill-rule="evenodd"/><path d="M103.225 108.633v10.086s-3.373-4.193-5.38-4.228H90.81v9.735c-.06.858 1.232 1.32 3.146 1.32v2.124H82.74v-2.125h2.777V97.256h-4.03v-2.76h18.39s3.072 8.363 3.157 10.804h-1.17c-.48-2.254-4.937-8.044-6.323-8.044h-4.826V111.9h7.13c2.192 0 5.38-3.266 5.38-3.266z" fill="#ffe991" stroke="#000" stroke-width=".5" stroke-linejoin="bevel"/><path d="M73.438 100.5v1.969h4.03V123.5h-4.03v2.125H86.5V123.5h-3.938v-9.938h3.594l13.125 12.094c1.073 1.027 1.645 1.175 4.188 1.219 2.59.045 5.013-2.143 5.062-3.563.048-1.372-1.11-2.093-2.437-2.093-1.28 0-2.502.446-2.875 2.406L92.53 113.562c6.221 0 10.156-2.473 10.156-6.53 0-4.105-3.697-6.532-5.843-6.532H73.438zm9.03 1.969h11.094c1.98-.139 4.032 2.256 4.032 4.5 0 2.243-1.59 4.383-4.031 4.469H82.469v-8.97z" fill="#ffe991" stroke="#000" stroke-width=".5" stroke-linejoin="bevel"/></svg>